<?xml version="1.0" encoding="UTF-8" standalone="no"?><svg xmlns="http://www.w3.org/2000/svg" xmlns:xlink="http://www.w3.org/1999/xlink" clip-rule="evenodd" stroke-miterlimit="4.00" viewBox="0 0 602 57"><desc>SVG generated by Keynote</desc><defs></defs><g transform="matrix(1.00, 0.00, -0.00, -1.00, 0.0, 57.0)"><text xml:space="preserve" font-family="HelveticaNeue-CondensedBold" font-weight="bold" font-size="72.0" fill="#DDDDDD" transform="matrix(1.00, 0.00, -0.00, -1.00, -2.0, 2.0)">B</text><text xml:space="preserve" font-family="HelveticaNeue-CondensedBold" font-weight="bold" font-size="72.0" fill="#DDDDDD" transform="matrix(1.00, 0.00, -0.00, -1.00, 38.0, 2.0)">E</text><text xml:space="preserve" font-family="HelveticaNeue-CondensedBold" font-weight="bold" font-size="72.0" fill="#DDDDDD" transform="matrix(1.00, 0.00, -0.00, -1.00, 72.7, 2.0)">N</text><text xml:space="preserve" font-family="HelveticaNeue-CondensedBold" font-weight="bold" font-size="72.0" fill="#DDDDDD" transform="matrix(1.00, 0.00, -0.00, -1.00, 114.0, 2.0)">I</text><text xml:space="preserve" font-family="HelveticaNeue-CondensedBold" font-weight="bold" font-size="72.0" fill="#DDDDDD" transform="matrix(1.00, 0.00, -0.00, -1.00, 132.6, 2.0)">G</text><text xml:space="preserve" font-family="HelveticaNeue-CondensedBold" font-weight="bold" font-size="72.0" fill="#DDDDDD" transform="matrix(1.00, 0.00, -0.00, -1.00, 172.6, 2.0)">H</text><text xml:space="preserve" font-family="HelveticaNeue-CondensedBold" font-weight="bold" font-size="72.0" fill="#DDDDDD" transform="matrix(1.00, 0.00, -0.00, -1.00, 212.6, 2.0)">T</text><text xml:space="preserve" font-family="HelveticaNeue-CondensedBold" font-weight="bold" font-size="72.0" fill="#DDDDDD" transform="matrix(1.00, 0.00, -0.00, -1.00, 247.2, 2.0)"> </text><text xml:space="preserve" font-family="HelveticaNeue-CondensedBold" font-weight="bold" font-size="72.0" fill="#DDDDDD" transform="matrix(1.00, 0.00, -0.00, -1.00, 264.5, 2.0)">:</text><text xml:space="preserve" font-family="HelveticaNeue-CondensedBold" font-weight="bold" font-size="72.0" fill="#DDDDDD" transform="matrix(1.00, 0.00, -0.00, -1.00, 279.1, 2.0)"> </text><text xml:space="preserve" font-family="HelveticaNeue-CondensedBold" font-weight="bold" font-size="72.0" fill="#DDDDDD" transform="matrix(1.00, 0.00, -0.00, -1.00, 296.4, 2.0)">L</text><text xml:space="preserve" font-family="HelveticaNeue-CondensedBold" font-weight="bold" font-size="72.0" fill="#DDDDDD" transform="matrix(1.00, 0.00, -0.00, -1.00, 329.7, 2.0)">E</text><text xml:space="preserve" font-family="HelveticaNeue-CondensedBold" font-weight="bold" font-size="72.0" fill="#DDDDDD" transform="matrix(1.00, 0.00, -0.00, -1.00, 364.3, 2.0)"> </text><text xml:space="preserve" font-family="HelveticaNeue-CondensedBold" font-weight="bold" font-size="72.0" fill="#DDDDDD" transform="matrix(1.00, 0.00, -0.00, -1.00, 381.6, 2.0)">P</text><text xml:space="preserve" font-family="HelveticaNeue-CondensedBold" font-weight="bold" font-size="72.0" fill="#DDDDDD" transform="matrix(1.00, 0.00, -0.00, -1.00, 419.0, 2.0)">R</text><text xml:space="preserve" font-family="HelveticaNeue-CondensedBold" font-weight="bold" font-size="72.0" fill="#DDDDDD" transform="matrix(1.00, 0.00, -0.00, -1.00, 459.0, 2.0)">O</text><text xml:space="preserve" font-family="HelveticaNeue-CondensedBold" font-weight="bold" font-size="72.0" fill="#DDDDDD" transform="matrix(1.00, 0.00, -0.00, -1.00, 499.0, 2.0)">J</text><text xml:space="preserve" font-family="HelveticaNeue-CondensedBold" font-weight="bold" font-size="72.0" fill="#DDDDDD" transform="matrix(1.00, 0.00, -0.00, -1.00, 532.4, 2.0)">E</text><text xml:space="preserve" font-family="HelveticaNeue-CondensedBold" font-weight="bold" font-size="72.0" fill="#DDDDDD" transform="matrix(1.00, 0.00, -0.00, -1.00, 567.0, 2.0)">T</text></g></svg>