<?xml version="1.0" encoding="UTF-8" standalone="no"?><svg xmlns="http://www.w3.org/2000/svg" xmlns:xlink="http://www.w3.org/1999/xlink" clip-rule="evenodd" stroke-miterlimit="4.00" viewBox="0 0 369 243"><desc>SVG generated by Keynote</desc><defs><pattern id="3E523395-BBBD-45DE-B71E-0C8E308F6981" patternUnits="userSpaceOnUse" width="335" height="335" viewBox="0 0 335 335" patternTransform="matrix(0.859702, 0.000000, 0.000000, -0.859702, 21.144440, 211.468900)"><image xlink:href="../../E4E529A7-F66A-4B1D-8C05-6AD545F75BC5/assets/669ADF0A15E89A699953E3067A2ED954.jpeg" width="335.00" height="335.00"></image></pattern></defs><g transform="matrix(1.00, 0.00, -0.00, -1.00, 0.0, 243.0)"><image xlink:href="../../E4E529A7-F66A-4B1D-8C05-6AD545F75BC5/assets/1B9596628D80FFF9860B4CE6FE921C22.png" width="367.00" height="220.00" transform="matrix(1.00, 0.00, -0.00, -1.00, 1.1, 221.5)" opacity="0.70"></image><g><clipPath id="clip-16"><path d="M 165.9 211.5 C 85.9 211.5 21.1 182.0 21.1 145.6 C 21.1 109.3 85.9 79.8 165.9 79.8 C 187.3 79.8 207.5 81.9 225.7 85.7 L 347.6 31.9 L 268.3 99.1 C 294.5 111.0 310.7 127.5 310.7 145.6 C 310.7 182.0 245.8 211.5 165.9 211.5 Z M 165.9 211.5 "></path></clipPath><g clip-path="url(#clip-16)"><path d="M 21.1 31.9 L 347.6 31.9 L 347.6 211.5 L 21.1 211.5 Z M 21.1 31.9 " fill="url(#3E523395-BBBD-45DE-B71E-0C8E308F6981)"></path><path d="M 21.1 211.5 L 347.6 211.5 L 347.6 31.9 L 21.1 31.9 Z M 21.1 211.5 " fill="#4075C4" fill-opacity="0.50"></path></g></g></g></svg>