<?xml version="1.0" encoding="UTF-8" standalone="no"?><svg xmlns="http://www.w3.org/2000/svg" xmlns:xlink="http://www.w3.org/1999/xlink" clip-rule="evenodd" stroke-miterlimit="4.00" viewBox="0 0 357 228"><desc>SVG generated by Keynote</desc><defs><pattern id="C9958B4E-655E-4CE8-904F-D3BEF5348E85" patternUnits="userSpaceOnUse" width="335" height="335" viewBox="0 0 335 335" patternTransform="matrix(0.859702, 0.000000, 0.000000, -0.859702, 21.179690, 196.281400)"><image xlink:href="../../E4E529A7-F66A-4B1D-8C05-6AD545F75BC5/assets/669ADF0A15E89A699953E3067A2ED954.jpeg" width="335.00" height="335.00"></image></pattern></defs><g transform="matrix(1.00, 0.00, -0.00, -1.00, 0.0, 228.0)"><image xlink:href="../../E4E529A7-F66A-4B1D-8C05-6AD545F75BC5/assets/5A078F55C8E79A3896A57B9742EB70CE.png" width="354.00" height="205.00" transform="matrix(1.00, 0.00, -0.00, -1.00, 1.2, 206.3)" opacity="0.70"></image><g><clipPath id="clip-15"><path d="M 190.3 196.3 C 110.3 196.3 45.5 166.3 45.5 129.3 C 45.5 112.0 60.0 96.2 83.4 84.3 L 21.2 31.1 L 127.1 69.2 C 146.2 64.9 167.6 62.4 190.3 62.4 C 270.2 62.4 335.1 92.4 335.1 129.3 C 335.1 166.3 270.2 196.3 190.3 196.3 Z M 190.3 196.3 "></path></clipPath><g clip-path="url(#clip-15)"><path d="M 21.2 31.1 L 335.1 31.1 L 335.1 196.3 L 21.2 196.3 Z M 21.2 31.1 " fill="url(#C9958B4E-655E-4CE8-904F-D3BEF5348E85)"></path><path d="M 21.2 196.3 L 335.1 196.3 L 335.1 31.1 L 21.2 31.1 Z M 21.2 196.3 " fill="#4075C4" fill-opacity="0.50"></path></g></g></g></svg>