<?xml version="1.0" encoding="UTF-8" standalone="no"?><svg xmlns="http://www.w3.org/2000/svg" xmlns:xlink="http://www.w3.org/1999/xlink" clip-rule="evenodd" stroke-miterlimit="4.00" viewBox="0 0 153 31"><desc>SVG generated by Keynote</desc><defs></defs><g transform="matrix(1.00, 0.00, -0.00, -1.00, 0.0, 31.0)"><text xml:space="preserve" font-family="HelveticaNeue" font-size="30.0" fill="#DDDDDD" transform="matrix(1.00, 0.00, -0.00, -1.00, 2.0, 8.0)">A</text><text xml:space="preserve" font-family="HelveticaNeue" font-size="30.0" fill="#DDDDDD" transform="matrix(1.00, 0.00, -0.00, -1.00, 21.4, 8.0)">p</text><text xml:space="preserve" font-family="HelveticaNeue" font-size="30.0" fill="#DDDDDD" transform="matrix(1.00, 0.00, -0.00, -1.00, 39.2, 8.0)">p</text><text xml:space="preserve" font-family="HelveticaNeue" font-size="30.0" fill="#DDDDDD" transform="matrix(1.00, 0.00, -0.00, -1.00, 57.0, 8.0)">l</text><text xml:space="preserve" font-family="HelveticaNeue" font-size="30.0" fill="#DDDDDD" transform="matrix(1.00, 0.00, -0.00, -1.00, 63.7, 8.0)">i</text><text xml:space="preserve" font-family="HelveticaNeue" font-size="30.0" fill="#DDDDDD" transform="matrix(1.00, 0.00, -0.00, -1.00, 70.3, 8.0)">c</text><text xml:space="preserve" font-family="HelveticaNeue" font-size="30.0" fill="#DDDDDD" transform="matrix(1.00, 0.00, -0.00, -1.00, 86.4, 8.0)">a</text><text xml:space="preserve" font-family="HelveticaNeue" font-size="30.0" fill="#DDDDDD" transform="matrix(1.00, 0.00, -0.00, -1.00, 102.6, 8.0)">t</text><text xml:space="preserve" font-family="HelveticaNeue" font-size="30.0" fill="#DDDDDD" transform="matrix(1.00, 0.00, -0.00, -1.00, 112.0, 8.0)">i</text><text xml:space="preserve" font-family="HelveticaNeue" font-size="30.0" fill="#DDDDDD" transform="matrix(1.00, 0.00, -0.00, -1.00, 118.7, 8.0)">o</text><text xml:space="preserve" font-family="HelveticaNeue" font-size="30.0" fill="#DDDDDD" transform="matrix(1.00, 0.00, -0.00, -1.00, 135.9, 8.0)">n</text></g></svg>