<?xml version="1.0" encoding="UTF-8" standalone="no"?><svg xmlns="http://www.w3.org/2000/svg" xmlns:xlink="http://www.w3.org/1999/xlink" clip-rule="evenodd" stroke-miterlimit="4.00" viewBox="0 0 335 288"><desc>SVG generated by Keynote</desc><defs><pattern id="71FEE594-DC82-4FEF-BCDD-00B1DE192BD2" patternUnits="userSpaceOnUse" width="335" height="335" viewBox="0 0 335 335" patternTransform="matrix(0.859702, 0.000000, 0.000000, -0.859702, 21.101560, 256.789100)"><image xlink:href="../../E4E529A7-F66A-4B1D-8C05-6AD545F75BC5/assets/669ADF0A15E89A699953E3067A2ED954.jpeg" width="335.00" height="335.00"></image></pattern></defs><g transform="matrix(1.00, 0.00, -0.00, -1.00, 0.0, 288.0)"><image xlink:href="B0B180E62173DF589024924A1ACFEFCF.png" width="332.00" height="265.00" transform="matrix(1.00, 0.00, -0.00, -1.00, 1.1, 266.8)" opacity="0.70"></image><g><clipPath id="clip-11"><path d="M 21.1 256.8 L 92.5 157.3 C 51.2 145.3 23.6 123.9 23.6 99.5 C 23.6 62.0 88.4 31.5 168.4 31.5 C 248.3 31.5 313.1 62.0 313.1 99.5 C 313.1 137.0 248.3 167.4 168.4 167.4 C 155.9 167.4 143.9 166.6 132.3 165.2 L 21.1 256.8 Z M 21.1 256.8 "></path></clipPath><g clip-path="url(#clip-11)"><path d="M 21.1 31.5 L 313.1 31.5 L 313.1 256.8 L 21.1 256.8 Z M 21.1 31.5 " fill="url(#71FEE594-DC82-4FEF-BCDD-00B1DE192BD2)"></path><path d="M 21.1 256.8 L 313.1 256.8 L 313.1 31.5 L 21.1 31.5 Z M 21.1 256.8 " fill="#4075C4" fill-opacity="0.50"></path></g></g><g><clipPath id="clip-12"><path d="M 23.6 31.5 L 313.1 31.5 L 313.1 167.4 L 23.6 167.4 Z M 23.6 31.5 "></path></clipPath><g clip-path="url(#clip-12)"><text xml:space="preserve" font-family="HelveticaNeue" font-size="30.0" fill="#DDDDDD" transform="matrix(1.00, 0.00, -0.00, -1.00, 64.0, 88.0)">E</text><text xml:space="preserve" font-family="HelveticaNeue" font-size="30.0" fill="#DDDDDD" transform="matrix(1.00, 0.00, -0.00, -1.00, 82.3, 88.0)">c</text><text xml:space="preserve" font-family="HelveticaNeue" font-size="30.0" fill="#DDDDDD" transform="matrix(1.00, 0.00, -0.00, -1.00, 98.4, 88.0)">o</text><text xml:space="preserve" font-family="HelveticaNeue" font-size="30.0" fill="#DDDDDD" transform="matrix(1.00, 0.00, -0.00, -1.00, 115.7, 88.0)">u</text><text xml:space="preserve" font-family="HelveticaNeue" font-size="30.0" fill="#DDDDDD" transform="matrix(1.00, 0.00, -0.00, -1.00, 132.3, 88.0)">t</text><text xml:space="preserve" font-family="HelveticaNeue" font-size="30.0" fill="#DDDDDD" transform="matrix(1.00, 0.00, -0.00, -1.00, 141.8, 88.0)">e</text><text xml:space="preserve" font-family="HelveticaNeue" font-size="30.0" fill="#DDDDDD" transform="matrix(1.00, 0.00, -0.00, -1.00, 157.9, 88.0)"> </text><text xml:space="preserve" font-family="HelveticaNeue" font-size="30.0" fill="#DDDDDD" transform="matrix(1.00, 0.00, -0.00, -1.00, 166.2, 88.0)">d</text><text xml:space="preserve" font-family="HelveticaNeue" font-size="30.0" fill="#DDDDDD" transform="matrix(1.00, 0.00, -0.00, -1.00, 184.0, 88.0)">e</text><text xml:space="preserve" font-family="HelveticaNeue" font-size="30.0" fill="#DDDDDD" transform="matrix(1.00, 0.00, -0.00, -1.00, 200.1, 88.0)">s</text><text xml:space="preserve" font-family="HelveticaNeue" font-size="30.0" fill="#DDDDDD" transform="matrix(1.00, 0.00, -0.00, -1.00, 215.1, 88.0)"> </text><text xml:space="preserve" font-family="HelveticaNeue" font-size="30.0" fill="#DDDDDD" transform="matrix(1.00, 0.00, -0.00, -1.00, 223.5, 88.0)">M</text><text xml:space="preserve" font-family="HelveticaNeue" font-size="30.0" fill="#DDDDDD" transform="matrix(1.00, 0.00, -0.00, -1.00, 249.6, 88.0)">i</text><text xml:space="preserve" font-family="HelveticaNeue" font-size="30.0" fill="#DDDDDD" transform="matrix(1.00, 0.00, -0.00, -1.00, 256.3, 88.0)">x</text></g></g></g></svg>