<?xml version="1.0" encoding="UTF-8" standalone="no"?><svg xmlns="http://www.w3.org/2000/svg" xmlns:xlink="http://www.w3.org/1999/xlink" clip-rule="evenodd" stroke-miterlimit="4.00" viewBox="0 0 876 372"><desc>SVG generated by Keynote</desc><defs></defs><g transform="matrix(1.00, 0.00, -0.00, -1.00, 0.0, 372.0)"><g><clipPath id="clip-66"><path d="M 0.4 1.0 L 875.6 1.0 L 875.6 44.1 L 0.4 44.1 Z M 0.4 1.0 "></path></clipPath><g clip-path="url(#clip-66)"><path d="M 1.4 2.0 L 874.6 2.0 L 874.6 43.1 L 1.4 43.1 Z M 1.4 2.0 " fill="#4E4E4E" fill-opacity="0.10"></path></g></g><g><clipPath id="clip-67"><path d="M 0.4 13.6 L 875.6 13.6 L 875.6 371.0 L 0.4 371.0 Z M 0.4 13.6 "></path></clipPath><g clip-path="url(#clip-67)"><path d="M 1.4 370.0 L 874.6 370.0 L 874.6 14.6 L 1.4 14.6 Z M 1.4 370.0 " fill="#F1EEE7"></path></g></g><g><clipPath id="clip-68"><path d="M 290.7 13.6 L 583.0 13.6 L 583.0 371.0 L 290.7 371.0 Z M 290.7 13.6 "></path></clipPath><g clip-path="url(#clip-68)"><path d="M 291.7 370.0 L 582.0 370.0 L 582.0 14.6 L 291.7 14.6 Z M 291.7 370.0 " fill="#EAE4DA"></path></g></g><g><clipPath id="clip-69"><path d="M 292.8 371.0 L 292.8 13.6 L 290.6 13.6 L 290.6 371.0 Z M 292.8 371.0 "></path></clipPath><g clip-path="url(#clip-69)"><path d="M 0.0 0.0 L 355.4 0.0 " fill="none" stroke="#D7D1C3" stroke-width="0.25" stroke-miterlimit="8.00" transform="matrix(0.00, -1.00, -1.00, 0.00, 291.7, 370.0)"></path></g></g><g><clipPath id="clip-70"><path d="M 583.1 371.0 L 583.1 13.6 L 580.9 13.6 L 580.9 371.0 Z M 583.1 371.0 "></path></clipPath><g clip-path="url(#clip-70)"><path d="M 0.0 0.0 L 355.4 0.0 " fill="none" stroke="#D7D1C3" stroke-width="0.25" stroke-miterlimit="8.00" transform="matrix(0.00, -1.00, -1.00, 0.00, 582.0, 370.0)"></path></g></g><g><clipPath id="clip-71"><path d="M 279.0 178.8 L 306.0 178.8 L 306.0 205.8 L 279.0 205.8 Z M 279.0 178.8 "></path></clipPath><g clip-path="url(#clip-71)"><path d="M 301.0 200.8 C 305.7 196.1 305.7 188.5 301.0 183.8 C 296.3 179.1 288.7 179.1 284.0 183.8 C 279.3 188.5 279.3 196.1 284.0 200.8 C 288.7 205.5 296.3 205.5 301.0 200.8 Z M 301.0 200.8 " fill="#EAE4DA"></path><path d="M 20.5 3.5 C 25.2 8.2 25.2 15.8 20.5 20.5 C 15.8 25.2 8.2 25.2 3.5 20.5 C -1.2 15.8 -1.2 8.2 3.5 3.5 C 8.2 -1.2 15.8 -1.2 20.5 3.5 Z M 20.5 3.5 " fill="none" stroke="#D7D1C3" stroke-width="1.00" stroke-miterlimit="8.00" transform="matrix(1.00, 0.00, 0.00, -1.00, 280.5, 204.3)"></path></g></g><g><clipPath id="clip-72"><path d="M 569.3 178.8 L 596.3 178.8 L 596.3 205.8 L 569.3 205.8 Z M 569.3 178.8 "></path></clipPath><g clip-path="url(#clip-72)"><path d="M 591.3 200.8 C 596.0 196.1 596.0 188.5 591.3 183.8 C 586.6 179.1 579.0 179.1 574.3 183.8 C 569.6 188.5 569.6 196.1 574.3 200.8 C 579.0 205.5 586.6 205.5 591.3 200.8 Z M 591.3 200.8 " fill="#EAE4DA"></path><path d="M 20.5 3.5 C 25.2 8.2 25.2 15.8 20.5 20.5 C 15.8 25.2 8.2 25.2 3.5 20.5 C -1.2 15.8 -1.2 8.2 3.5 3.5 C 8.2 -1.2 15.8 -1.2 20.5 3.5 Z M 20.5 3.5 " fill="none" stroke="#D7D1C3" stroke-width="1.00" stroke-miterlimit="8.00" transform="matrix(1.00, 0.00, 0.00, -1.00, 570.8, 204.3)"></path></g></g></g></svg>