<?xml version="1.0" encoding="UTF-8" standalone="no"?><svg xmlns="http://www.w3.org/2000/svg" xmlns:xlink="http://www.w3.org/1999/xlink" clip-rule="evenodd" stroke-miterlimit="4.00" viewBox="0 0 365 56"><desc>SVG generated by Keynote</desc><defs></defs><g transform="matrix(1.00, 0.00, -0.00, -1.00, 0.0, 56.0)"><text xml:space="preserve" font-family="HelveticaNeue-CondensedBold" font-weight="bold" font-size="72.0" fill="#DDDDDD" transform="matrix(1.00, 0.00, -0.00, -1.00, -1.0, 2.0)">C</text><text xml:space="preserve" font-family="HelveticaNeue-CondensedBold" font-weight="bold" font-size="72.0" fill="#DDDDDD" transform="matrix(1.00, 0.00, -0.00, -1.00, 37.7, 2.0)">O</text><text xml:space="preserve" font-family="HelveticaNeue-CondensedBold" font-weight="bold" font-size="72.0" fill="#DDDDDD" transform="matrix(1.00, 0.00, -0.00, -1.00, 77.7, 2.0)">N</text><text xml:space="preserve" font-family="HelveticaNeue-CondensedBold" font-weight="bold" font-size="72.0" fill="#DDDDDD" transform="matrix(1.00, 0.00, -0.00, -1.00, 119.0, 2.0)">C</text><text xml:space="preserve" font-family="HelveticaNeue-CondensedBold" font-weight="bold" font-size="72.0" fill="#DDDDDD" transform="matrix(1.00, 0.00, -0.00, -1.00, 157.7, 2.0)">L</text><text xml:space="preserve" font-family="HelveticaNeue-CondensedBold" font-weight="bold" font-size="72.0" fill="#DDDDDD" transform="matrix(1.00, 0.00, -0.00, -1.00, 191.0, 2.0)">U</text><text xml:space="preserve" font-family="HelveticaNeue-CondensedBold" font-weight="bold" font-size="72.0" fill="#DDDDDD" transform="matrix(1.00, 0.00, -0.00, -1.00, 229.8, 2.0)">S</text><text xml:space="preserve" font-family="HelveticaNeue-CondensedBold" font-weight="bold" font-size="72.0" fill="#DDDDDD" transform="matrix(1.00, 0.00, -0.00, -1.00, 267.1, 2.0)">I</text><text xml:space="preserve" font-family="HelveticaNeue-CondensedBold" font-weight="bold" font-size="72.0" fill="#DDDDDD" transform="matrix(1.00, 0.00, -0.00, -1.00, 285.7, 2.0)">O</text><text xml:space="preserve" font-family="HelveticaNeue-CondensedBold" font-weight="bold" font-size="72.0" fill="#DDDDDD" transform="matrix(1.00, 0.00, -0.00, -1.00, 325.7, 2.0)">N</text></g></svg>