<?xml version="1.0" encoding="UTF-8" standalone="no"?><svg xmlns="http://www.w3.org/2000/svg" xmlns:xlink="http://www.w3.org/1999/xlink" clip-rule="evenodd" stroke-miterlimit="4.00" viewBox="0 0 674 69"><desc>SVG generated by Keynote</desc><defs></defs><g transform="matrix(1.00, 0.00, -0.00, -1.00, 0.0, 69.0)"><text xml:space="preserve" font-family="HelveticaNeue-CondensedBold" font-weight="bold" font-size="72.0" fill="#DDDDDD" transform="matrix(1.00, 0.00, -0.00, -1.00, -1.0, 2.0)">L</text><text xml:space="preserve" font-family="HelveticaNeue-CondensedBold" font-weight="bold" font-size="72.0" fill="#DDDDDD" transform="matrix(1.00, 0.00, -0.00, -1.00, 25.7, 2.0)">’</text><text xml:space="preserve" font-family="HelveticaNeue-CondensedBold" font-weight="bold" font-size="72.0" fill="#DDDDDD" transform="matrix(1.00, 0.00, -0.00, -1.00, 44.4, 2.0)">E</text><text xml:space="preserve" font-family="HelveticaNeue-CondensedBold" font-weight="bold" font-size="72.0" fill="#DDDDDD" transform="matrix(1.00, 0.00, -0.00, -1.00, 79.1, 2.0)">X</text><text xml:space="preserve" font-family="HelveticaNeue-CondensedBold" font-weight="bold" font-size="72.0" fill="#DDDDDD" transform="matrix(1.00, 0.00, -0.00, -1.00, 117.7, 2.0)">P</text><text xml:space="preserve" font-family="HelveticaNeue-CondensedBold" font-weight="bold" font-size="72.0" fill="#DDDDDD" transform="matrix(1.00, 0.00, -0.00, -1.00, 155.1, 2.0)">É</text><text xml:space="preserve" font-family="HelveticaNeue-CondensedBold" font-weight="bold" font-size="72.0" fill="#DDDDDD" transform="matrix(1.00, 0.00, -0.00, -1.00, 189.7, 2.0)">R</text><text xml:space="preserve" font-family="HelveticaNeue-CondensedBold" font-weight="bold" font-size="72.0" fill="#DDDDDD" transform="matrix(1.00, 0.00, -0.00, -1.00, 229.8, 2.0)">I</text><text xml:space="preserve" font-family="HelveticaNeue-CondensedBold" font-weight="bold" font-size="72.0" fill="#DDDDDD" transform="matrix(1.00, 0.00, -0.00, -1.00, 248.3, 2.0)">E</text><text xml:space="preserve" font-family="HelveticaNeue-CondensedBold" font-weight="bold" font-size="72.0" fill="#DDDDDD" transform="matrix(1.00, 0.00, -0.00, -1.00, 283.0, 2.0)">N</text><text xml:space="preserve" font-family="HelveticaNeue-CondensedBold" font-weight="bold" font-size="72.0" fill="#DDDDDD" transform="matrix(1.00, 0.00, -0.00, -1.00, 324.3, 2.0)">C</text><text xml:space="preserve" font-family="HelveticaNeue-CondensedBold" font-weight="bold" font-size="72.0" fill="#DDDDDD" transform="matrix(1.00, 0.00, -0.00, -1.00, 363.0, 2.0)">E</text><text xml:space="preserve" font-family="HelveticaNeue-CondensedBold" font-weight="bold" font-size="72.0" fill="#DDDDDD" transform="matrix(1.00, 0.00, -0.00, -1.00, 397.6, 2.0)"> </text><text xml:space="preserve" font-family="HelveticaNeue-CondensedBold" font-weight="bold" font-size="72.0" fill="#DDDDDD" transform="matrix(1.00, 0.00, -0.00, -1.00, 414.9, 2.0)">R</text><text xml:space="preserve" font-family="HelveticaNeue-CondensedBold" font-weight="bold" font-size="72.0" fill="#DDDDDD" transform="matrix(1.00, 0.00, -0.00, -1.00, 454.9, 2.0)">E</text><text xml:space="preserve" font-family="HelveticaNeue-CondensedBold" font-weight="bold" font-size="72.0" fill="#DDDDDD" transform="matrix(1.00, 0.00, -0.00, -1.00, 489.5, 2.0)">T</text><text xml:space="preserve" font-family="HelveticaNeue-CondensedBold" font-weight="bold" font-size="72.0" fill="#DDDDDD" transform="matrix(1.00, 0.00, -0.00, -1.00, 524.1, 2.0)">E</text><text xml:space="preserve" font-family="HelveticaNeue-CondensedBold" font-weight="bold" font-size="72.0" fill="#DDDDDD" transform="matrix(1.00, 0.00, -0.00, -1.00, 558.7, 2.0)">N</text><text xml:space="preserve" font-family="HelveticaNeue-CondensedBold" font-weight="bold" font-size="72.0" fill="#DDDDDD" transform="matrix(1.00, 0.00, -0.00, -1.00, 600.1, 2.0)">U</text><text xml:space="preserve" font-family="HelveticaNeue-CondensedBold" font-weight="bold" font-size="72.0" fill="#DDDDDD" transform="matrix(1.00, 0.00, -0.00, -1.00, 638.8, 2.0)">E</text></g></svg>