<?xml version="1.0" encoding="UTF-8" standalone="no"?><svg xmlns="http://www.w3.org/2000/svg" xmlns:xlink="http://www.w3.org/1999/xlink" clip-rule="evenodd" stroke-miterlimit="4.00" viewBox="0 0 679 94"><desc>SVG generated by Keynote</desc><defs></defs><g transform="matrix(1.00, 0.00, -0.00, -1.00, 0.0, 94.0)"><g><clipPath id="clip-156"><path d="M 507.9 0.0 L 507.9 75.1 L 582.9 75.1 L 582.9 0.0 Z M 507.9 0.0 "></path></clipPath><g clip-path="url(#clip-156)"><path d="M 557.1 27.3 L 581.9 27.3 L 545.4 74.1 L 508.9 27.3 L 533.7 27.3 L 533.7 1.0 L 557.1 1.0 Z M 557.1 27.3 " fill="#DCDDE0"></path></g></g><g><clipPath id="clip-157"><path d="M 577.7 10.4 L 682.3 10.4 L 682.3 63.9 L 577.7 63.9 Z M 577.7 10.4 "></path></clipPath><g clip-path="url(#clip-157)"><text xml:space="preserve" font-family="HelveticaNeue" font-size="30.0" fill="#DCDDE0" transform="matrix(1.00, 0.00, -0.00, -1.00, 587.0, 26.0)">L</text><text xml:space="preserve" font-family="HelveticaNeue" font-size="30.0" fill="#DCDDE0" transform="matrix(1.00, 0.00, -0.00, -1.00, 603.7, 26.0)">v</text><text xml:space="preserve" font-family="HelveticaNeue" font-size="30.0" fill="#DCDDE0" transform="matrix(1.00, 0.00, -0.00, -1.00, 618.7, 26.0)">l</text><text xml:space="preserve" font-family="HelveticaNeue" font-size="30.0" fill="#DCDDE0" transform="matrix(1.00, 0.00, -0.00, -1.00, 625.3, 26.0)"> </text><text xml:space="preserve" font-family="HelveticaNeue" font-size="30.0" fill="#DCDDE0" transform="matrix(1.00, 0.00, -0.00, -1.00, 633.7, 26.0)">U</text><text xml:space="preserve" font-family="HelveticaNeue" font-size="30.0" fill="#DCDDE0" transform="matrix(1.00, 0.00, -0.00, -1.00, 655.3, 26.0)">p</text></g></g><g><clipPath id="clip-158"><path d="M 1.0 18.8 L 1.0 93.8 L 76.0 93.8 L 76.0 18.8 Z M 1.0 18.8 "></path></clipPath><g clip-path="url(#clip-158)"><path d="M 50.2 46.1 L 75.0 46.1 L 38.5 92.8 L 2.0 46.1 L 26.8 46.1 L 26.8 19.8 L 50.2 19.8 Z M 50.2 46.1 " fill="#DCDDE0"></path></g></g><g><clipPath id="clip-159"><path d="M 70.8 29.2 L 175.4 29.2 L 175.4 82.6 L 70.8 82.6 Z M 70.8 29.2 "></path></clipPath><g clip-path="url(#clip-159)"><text xml:space="preserve" font-family="HelveticaNeue" font-size="30.0" fill="#DCDDE0" transform="matrix(1.00, 0.00, -0.00, -1.00, 80.0, 45.0)">L</text><text xml:space="preserve" font-family="HelveticaNeue" font-size="30.0" fill="#DCDDE0" transform="matrix(1.00, 0.00, -0.00, -1.00, 96.7, 45.0)">v</text><text xml:space="preserve" font-family="HelveticaNeue" font-size="30.0" fill="#DCDDE0" transform="matrix(1.00, 0.00, -0.00, -1.00, 111.7, 45.0)">l</text><text xml:space="preserve" font-family="HelveticaNeue" font-size="30.0" fill="#DCDDE0" transform="matrix(1.00, 0.00, -0.00, -1.00, 118.3, 45.0)"> </text><text xml:space="preserve" font-family="HelveticaNeue" font-size="30.0" fill="#DCDDE0" transform="matrix(1.00, 0.00, -0.00, -1.00, 126.7, 45.0)">U</text><text xml:space="preserve" font-family="HelveticaNeue" font-size="30.0" fill="#DCDDE0" transform="matrix(1.00, 0.00, -0.00, -1.00, 148.3, 45.0)">p</text></g></g></g></svg>