<?xml version="1.0" encoding="UTF-8" standalone="no"?><svg xmlns="http://www.w3.org/2000/svg" xmlns:xlink="http://www.w3.org/1999/xlink" clip-rule="evenodd" stroke-miterlimit="4.00" viewBox="0 0 240 31"><desc>SVG generated by Keynote</desc><defs></defs><g transform="matrix(1.00, 0.00, -0.00, -1.00, 0.0, 31.0)"><text xml:space="preserve" font-family="HelveticaNeue-CondensedBold" font-weight="bold" font-size="36.0" fill="#558AAA" transform="matrix(1.00, 0.00, -0.00, -1.00, 1.0, 2.0)">J</text><text xml:space="preserve" font-family="HelveticaNeue-CondensedBold" font-weight="bold" font-size="36.0" fill="#558AAA" transform="matrix(1.00, 0.00, -0.00, -1.00, 17.7, 2.0)">e</text><text xml:space="preserve" font-family="HelveticaNeue-CondensedBold" font-weight="bold" font-size="36.0" fill="#558AAA" transform="matrix(1.00, 0.00, -0.00, -1.00, 34.3, 2.0)">u</text><text xml:space="preserve" font-family="HelveticaNeue-CondensedBold" font-weight="bold" font-size="36.0" fill="#558AAA" transform="matrix(1.00, 0.00, -0.00, -1.00, 52.3, 2.0)">n</text><text xml:space="preserve" font-family="HelveticaNeue-CondensedBold" font-weight="bold" font-size="36.0" fill="#558AAA" transform="matrix(1.00, 0.00, -0.00, -1.00, 70.3, 2.0)">e</text><text xml:space="preserve" font-family="HelveticaNeue-CondensedBold" font-weight="bold" font-size="36.0" fill="#558AAA" transform="matrix(1.00, 0.00, -0.00, -1.00, 87.0, 2.0)">s</text><text xml:space="preserve" font-family="HelveticaNeue-CondensedBold" font-weight="bold" font-size="36.0" fill="#558AAA" transform="matrix(1.00, 0.00, -0.00, -1.00, 103.0, 2.0)"> </text><text xml:space="preserve" font-family="HelveticaNeue-CondensedBold" font-weight="bold" font-size="36.0" fill="#558AAA" transform="matrix(1.00, 0.00, -0.00, -1.00, 111.6, 2.0)">C</text><text xml:space="preserve" font-family="HelveticaNeue-CondensedBold" font-weight="bold" font-size="36.0" fill="#558AAA" transform="matrix(1.00, 0.00, -0.00, -1.00, 131.0, 2.0)">l</text><text xml:space="preserve" font-family="HelveticaNeue-CondensedBold" font-weight="bold" font-size="36.0" fill="#558AAA" transform="matrix(1.00, 0.00, -0.00, -1.00, 139.6, 2.0)">u</text><text xml:space="preserve" font-family="HelveticaNeue-CondensedBold" font-weight="bold" font-size="36.0" fill="#558AAA" transform="matrix(1.00, 0.00, -0.00, -1.00, 157.6, 2.0)">b</text><text xml:space="preserve" font-family="HelveticaNeue-CondensedBold" font-weight="bold" font-size="36.0" fill="#558AAA" transform="matrix(1.00, 0.00, -0.00, -1.00, 175.6, 2.0)">b</text><text xml:space="preserve" font-family="HelveticaNeue-CondensedBold" font-weight="bold" font-size="36.0" fill="#558AAA" transform="matrix(1.00, 0.00, -0.00, -1.00, 193.6, 2.0)">e</text><text xml:space="preserve" font-family="HelveticaNeue-CondensedBold" font-weight="bold" font-size="36.0" fill="#558AAA" transform="matrix(1.00, 0.00, -0.00, -1.00, 210.3, 2.0)">r</text><text xml:space="preserve" font-family="HelveticaNeue-CondensedBold" font-weight="bold" font-size="36.0" fill="#558AAA" transform="matrix(1.00, 0.00, -0.00, -1.00, 222.3, 2.0)">s</text></g></svg>