<?xml version="1.0" encoding="UTF-8" standalone="no"?><svg xmlns="http://www.w3.org/2000/svg" xmlns:xlink="http://www.w3.org/1999/xlink" clip-rule="evenodd" stroke-miterlimit="4.00" viewBox="0 0 1024 768"><desc>SVG generated by Keynote</desc><defs></defs><g transform="matrix(1.00, 0.00, -0.00, -1.00, 0.0, 768.0)"><g><clipPath id="clip-167"><path d="M 0.0 768.0 L 1024.0 768.0 L 1024.0 0.0 L 0.0 0.0 Z M 0.0 768.0 "></path></clipPath><g clip-path="url(#clip-167)"><image xlink:href="../../611EC131-E174-4299-AC61-59CBB805D9E0/assets/75640688B43322D8ECDD2BA9341C9261.jpeg" width="1024.00" height="768.00" transform="matrix(1.00, 0.00, -0.00, -1.00, 0.0, 768.0)"></image></g></g><path d="M 0.0 0.0 L 980.0 0.0 L 980.0 726.0 L 0.0 726.0 Z M 0.0 0.0 " fill="none" stroke="#83817C" stroke-width="2.00" transform="matrix(1.00, 0.00, 0.00, -1.00, 22.0, 746.0)"></path><text xml:space="preserve" font-family="HelveticaNeue-CondensedBold" font-weight="bold" font-size="36.0" fill="#558AAA" transform="matrix(1.00, 0.00, -0.00, -1.00, 77.0, 373.0)">A</text><text xml:space="preserve" font-family="HelveticaNeue-CondensedBold" font-weight="bold" font-size="36.0" fill="#558AAA" transform="matrix(1.00, 0.00, -0.00, -1.00, 96.3, 373.0)">V</text><text xml:space="preserve" font-family="HelveticaNeue-CondensedBold" font-weight="bold" font-size="36.0" fill="#558AAA" transform="matrix(1.00, 0.00, -0.00, -1.00, 115.0, 373.0)">E</text><text xml:space="preserve" font-family="HelveticaNeue-CondensedBold" font-weight="bold" font-size="36.0" fill="#558AAA" transform="matrix(1.00, 0.00, -0.00, -1.00, 132.3, 373.0)">Z</text><text xml:space="preserve" font-family="HelveticaNeue-CondensedBold" font-weight="bold" font-size="36.0" fill="#558AAA" transform="matrix(1.00, 0.00, -0.00, -1.00, 149.6, 373.0)"> </text><text xml:space="preserve" font-family="HelveticaNeue-CondensedBold" font-weight="bold" font-size="36.0" fill="#558AAA" transform="matrix(1.00, 0.00, -0.00, -1.00, 156.9, 373.0)">V</text><text xml:space="preserve" font-family="HelveticaNeue-CondensedBold" font-weight="bold" font-size="36.0" fill="#558AAA" transform="matrix(1.00, 0.00, -0.00, -1.00, 175.6, 373.0)">O</text><text xml:space="preserve" font-family="HelveticaNeue-CondensedBold" font-weight="bold" font-size="36.0" fill="#558AAA" transform="matrix(1.00, 0.00, -0.00, -1.00, 195.6, 373.0)">U</text><text xml:space="preserve" font-family="HelveticaNeue-CondensedBold" font-weight="bold" font-size="36.0" fill="#558AAA" transform="matrix(1.00, 0.00, -0.00, -1.00, 215.0, 373.0)">S</text><text xml:space="preserve" font-family="HelveticaNeue-CondensedBold" font-weight="bold" font-size="36.0" fill="#558AAA" transform="matrix(1.00, 0.00, -0.00, -1.00, 233.7, 373.0)"> </text><text xml:space="preserve" font-family="HelveticaNeue-CondensedBold" font-weight="bold" font-size="36.0" fill="#558AAA" transform="matrix(1.00, 0.00, -0.00, -1.00, 242.3, 373.0)">D</text><text xml:space="preserve" font-family="HelveticaNeue-CondensedBold" font-weight="bold" font-size="36.0" fill="#558AAA" transform="matrix(1.00, 0.00, -0.00, -1.00, 263.0, 373.0)">E</text><text xml:space="preserve" font-family="HelveticaNeue-CondensedBold" font-weight="bold" font-size="36.0" fill="#558AAA" transform="matrix(1.00, 0.00, -0.00, -1.00, 280.3, 373.0)">S</text><text xml:space="preserve" font-family="HelveticaNeue-CondensedBold" font-weight="bold" font-size="36.0" fill="#558AAA" transform="matrix(1.00, 0.00, -0.00, -1.00, 299.0, 373.0)"> </text><text xml:space="preserve" font-family="HelveticaNeue-CondensedBold" font-weight="bold" font-size="36.0" fill="#558AAA" transform="matrix(1.00, 0.00, -0.00, -1.00, 307.6, 373.0)">Q</text><text xml:space="preserve" font-family="HelveticaNeue-CondensedBold" font-weight="bold" font-size="36.0" fill="#558AAA" transform="matrix(1.00, 0.00, -0.00, -1.00, 327.6, 373.0)">U</text><text xml:space="preserve" font-family="HelveticaNeue-CondensedBold" font-weight="bold" font-size="36.0" fill="#558AAA" transform="matrix(1.00, 0.00, -0.00, -1.00, 347.0, 373.0)">E</text><text xml:space="preserve" font-family="HelveticaNeue-CondensedBold" font-weight="bold" font-size="36.0" fill="#558AAA" transform="matrix(1.00, 0.00, -0.00, -1.00, 364.3, 373.0)">S</text><text xml:space="preserve" font-family="HelveticaNeue-CondensedBold" font-weight="bold" font-size="36.0" fill="#558AAA" transform="matrix(1.00, 0.00, -0.00, -1.00, 383.0, 373.0)">T</text><text xml:space="preserve" font-family="HelveticaNeue-CondensedBold" font-weight="bold" font-size="36.0" fill="#558AAA" transform="matrix(1.00, 0.00, -0.00, -1.00, 400.3, 373.0)">I</text><text xml:space="preserve" font-family="HelveticaNeue-CondensedBold" font-weight="bold" font-size="36.0" fill="#558AAA" transform="matrix(1.00, 0.00, -0.00, -1.00, 409.6, 373.0)">O</text><text xml:space="preserve" font-family="HelveticaNeue-CondensedBold" font-weight="bold" font-size="36.0" fill="#558AAA" transform="matrix(1.00, 0.00, -0.00, -1.00, 429.6, 373.0)">N</text><text xml:space="preserve" font-family="HelveticaNeue-CondensedBold" font-weight="bold" font-size="36.0" fill="#558AAA" transform="matrix(1.00, 0.00, -0.00, -1.00, 450.2, 373.0)">S</text><text xml:space="preserve" font-family="HelveticaNeue-CondensedBold" font-weight="bold" font-size="36.0" fill="#558AAA" transform="matrix(1.00, 0.00, -0.00, -1.00, 468.9, 373.0)"> </text><text xml:space="preserve" font-family="HelveticaNeue-CondensedBold" font-weight="bold" font-size="36.0" fill="#558AAA" transform="matrix(1.00, 0.00, -0.00, -1.00, 477.6, 373.0)">?</text><image xlink:href="../../E4E529A7-F66A-4B1D-8C05-6AD545F75BC5/assets/EBF406A901B355724164B9888795A0A9.png" width="485.00" height="484.00" transform="matrix(1.00, 0.00, -0.00, -1.00, 505.6, 615.2)" opacity="0.70"></image><g><clipPath id="clip-168"><path d="M 526.0 605.0 L 970.0 605.0 L 970.0 161.0 L 526.0 161.0 Z M 525.6 605.2 "></path></clipPath><g clip-path="url(#clip-168)"><image xlink:href="../../611EC131-E174-4299-AC61-59CBB805D9E0/assets/BFD3DD037AE3624AA8CFE99FE93AF5B1.png" width="445.00" height="445.00" transform="matrix(1.00, 0.00, -0.00, -1.00, 526.0, 605.0)"></image></g></g><image xlink:href="../../262F78A7-E2F3-4896-84A2-347FC951EBC7/assets/AD9CEA246199E2CC18E1A122A1986A6E.png" width="204.00" height="124.00" transform="matrix(1.00, 0.00, -0.00, -1.00, 804.2, 127.1)" opacity="0.70"></image><g><clipPath id="clip-169"><path d="M 824.0 117.0 L 988.0 117.0 L 988.0 34.0 L 824.0 34.0 Z M 824.2 117.1 "></path></clipPath><g clip-path="url(#clip-169)"><image xlink:href="../../E4E529A7-F66A-4B1D-8C05-6AD545F75BC5/assets/D1067CD3E0DF2B65CEC3326F2E9F2FA5.png" width="282.00" height="144.00" transform="matrix(0.58, 0.00, -0.00, -0.58, 824.0, 117.0)"></image></g></g></g></svg>