<?xml version="1.0" encoding="UTF-8" standalone="no"?><svg xmlns="http://www.w3.org/2000/svg" xmlns:xlink="http://www.w3.org/1999/xlink" clip-rule="evenodd" stroke-miterlimit="4.00" viewBox="0 0 119 94"><desc>SVG generated by Keynote</desc><defs></defs><g transform="matrix(1.00, 0.00, -0.00, -1.00, 0.0, 94.0)"><image xlink:href="C59C71E82DF136E77D8A6F82AE50DA5D.png" width="115.00" height="87.00" transform="matrix(1.00, 0.00, -0.00, -1.00, 1.6, 88.6)"></image><g><clipPath id="clip-92"><path d="M 7.0 86.0 L 112.0 86.0 L 112.0 8.0 L 7.0 8.0 Z M 6.6 85.6 "></path></clipPath><g clip-path="url(#clip-92)"><g><clipPath id="clip-93"><path d="M 10.8 8.8 C 10.5 9.1 9.9 11.2 9.4 13.5 C 5.5 32.0 5.8 51.9 9.9 64.2 C 11.9 70.0 14.2 72.8 18.9 75.0 C 21.8 76.4 29.8 78.8 33.1 79.4 C 34.0 79.5 35.5 80.0 36.2 80.5 C 37.4 81.2 38.4 81.3 41.5 81.4 C 45.1 81.4 45.6 81.5 48.2 82.9 C 54.0 85.9 57.5 86.4 60.9 84.6 C 61.9 84.1 63.0 83.4 63.3 83.1 C 63.6 82.7 65.0 82.4 66.9 82.2 C 75.5 81.4 85.2 78.7 90.8 75.6 C 93.7 74.0 100.6 71.9 102.6 72.0 C 103.9 72.1 104.3 72.4 105.2 73.7 C 105.9 74.7 106.7 75.4 107.3 75.5 C 108.2 75.6 108.2 75.5 106.7 74.0 C 104.5 71.7 105.1 71.2 108.7 72.1 C 110.2 72.5 111.5 72.7 111.6 72.6 C 112.0 72.2 110.0 71.5 107.5 71.2 C 104.7 70.9 104.2 70.2 106.2 69.4 C 107.6 68.8 109.8 65.9 108.7 65.9 C 108.4 65.9 108.0 66.1 107.7 66.5 C 107.0 67.3 106.4 67.2 106.0 66.2 L 106.0 65.3 L 106.0 65.3 C 104.5 66.7 104.1 67.5 104.1 68.0 C 104.1 68.5 103.7 69.3 103.4 69.6 C 102.5 70.3 97.5 71.0 97.1 70.4 C 97.0 70.2 97.2 69.3 97.6 68.3 C 100.4 62.1 100.9 51.5 98.7 44.9 C 98.3 43.5 97.3 40.9 96.6 39.2 C 94.8 35.0 94.5 32.8 94.2 23.8 C 94.0 16.2 93.8 14.9 92.5 14.5 C 90.2 13.8 84.6 13.4 81.3 13.6 C 76.4 14.0 75.9 14.1 75.3 15.7 C 74.7 17.1 74.6 17.1 72.3 17.1 C 69.1 17.1 67.1 17.7 66.8 18.8 C 66.7 19.3 66.6 21.7 66.5 24.1 C 66.5 32.2 65.9 34.0 64.1 31.6 C 63.5 30.7 63.4 29.3 63.1 21.5 C 63.0 16.5 62.8 12.2 62.7 11.8 C 62.4 10.9 60.9 10.3 56.8 9.6 C 52.4 8.9 47.4 8.9 44.8 9.6 C 43.2 10.0 43.4 10.2 43.0 11.7 L 42.0 13.0 L 39.6 14.0 C 38.2 14.2 36.8 14.1 36.5 14.4 C 36.1 14.8 35.8 17.2 35.5 23.6 C 35.1 33.9 34.6 37.6 33.3 40.3 C 31.8 43.7 31.3 43.8 26.5 41.1 C 24.3 39.8 21.9 38.3 21.3 37.7 C 19.5 36.1 18.6 33.7 18.0 28.7 C 17.3 23.6 17.0 12.3 17.5 10.4 C 17.9 9.1 17.8 9.1 16.3 8.7 C 14.2 8.1 11.5 8.1 10.8 8.8 "></path></clipPath><g clip-path="url(#clip-93)"><image xlink:href="9ED77515EB01BD5EC12D9272D558B460.png" width="120.00" height="120.00" transform="matrix(1.00, 0.00, -0.00, -0.99, -1.0, 105.0)"></image></g></g></g></g></g></svg>