<?xml version="1.0" encoding="UTF-8" standalone="no"?><svg xmlns="http://www.w3.org/2000/svg" xmlns:xlink="http://www.w3.org/1999/xlink" clip-rule="evenodd" stroke-miterlimit="4.00" viewBox="0 0 141 29"><desc>SVG generated by Keynote</desc><defs></defs><g transform="matrix(1.00, 0.00, -0.00, -1.00, 0.0, 29.0)"><text xml:space="preserve" font-family="HelveticaNeue-CondensedBold" font-weight="bold" font-size="36.0" fill="#558AAA" transform="matrix(1.00, 0.00, -0.00, -1.00, 0.0, 2.0)">F</text><text xml:space="preserve" font-family="HelveticaNeue-CondensedBold" font-weight="bold" font-size="36.0" fill="#558AAA" transform="matrix(1.00, 0.00, -0.00, -1.00, 16.7, 2.0)">I</text><text xml:space="preserve" font-family="HelveticaNeue-CondensedBold" font-weight="bold" font-size="36.0" fill="#558AAA" transform="matrix(1.00, 0.00, -0.00, -1.00, 26.0, 2.0)">N</text><text xml:space="preserve" font-family="HelveticaNeue-CondensedBold" font-weight="bold" font-size="36.0" fill="#558AAA" transform="matrix(1.00, 0.00, -0.00, -1.00, 46.6, 2.0)">A</text><text xml:space="preserve" font-family="HelveticaNeue-CondensedBold" font-weight="bold" font-size="36.0" fill="#558AAA" transform="matrix(1.00, 0.00, -0.00, -1.00, 66.6, 2.0)">L</text><text xml:space="preserve" font-family="HelveticaNeue-CondensedBold" font-weight="bold" font-size="36.0" fill="#558AAA" transform="matrix(1.00, 0.00, -0.00, -1.00, 83.3, 2.0)"> </text><text xml:space="preserve" font-family="HelveticaNeue-CondensedBold" font-weight="bold" font-size="36.0" fill="#558AAA" transform="matrix(1.00, 0.00, -0.00, -1.00, 90.6, 2.0)">T</text><text xml:space="preserve" font-family="HelveticaNeue-CondensedBold" font-weight="bold" font-size="36.0" fill="#558AAA" transform="matrix(1.00, 0.00, -0.00, -1.00, 104.6, 2.0)">.</text><text xml:space="preserve" font-family="HelveticaNeue-CondensedBold" font-weight="bold" font-size="36.0" fill="#558AAA" transform="matrix(1.00, 0.00, -0.00, -1.00, 113.2, 2.0)">A</text><text xml:space="preserve" font-family="HelveticaNeue-CondensedBold" font-weight="bold" font-size="36.0" fill="#558AAA" transform="matrix(1.00, 0.00, -0.00, -1.00, 133.2, 2.0)">.</text></g></svg>