<?xml version="1.0" encoding="UTF-8" standalone="no"?><svg xmlns="http://www.w3.org/2000/svg" xmlns:xlink="http://www.w3.org/1999/xlink" clip-rule="evenodd" stroke-miterlimit="4.00" viewBox="0 0 203 27"><desc>SVG generated by Keynote</desc><defs></defs><g transform="matrix(1.00, 0.00, -0.00, -1.00, 0.0, 27.0)"><text xml:space="preserve" font-family="HelveticaNeue" font-size="30.0" fill="#DDDDDD" transform="matrix(1.00, 0.00, -0.00, -1.00, 1.0, 2.0)">s</text><text xml:space="preserve" font-family="HelveticaNeue" font-size="30.0" fill="#DDDDDD" transform="matrix(1.00, 0.00, -0.00, -1.00, 16.0, 2.0)">o</text><text xml:space="preserve" font-family="HelveticaNeue" font-size="30.0" fill="#DDDDDD" transform="matrix(1.00, 0.00, -0.00, -1.00, 33.2, 2.0)">n</text><text xml:space="preserve" font-family="HelveticaNeue" font-size="30.0" fill="#DDDDDD" transform="matrix(1.00, 0.00, -0.00, -1.00, 49.9, 2.0)">t</text><text xml:space="preserve" font-family="HelveticaNeue" font-size="30.0" fill="#DDDDDD" transform="matrix(1.00, 0.00, -0.00, -1.00, 59.3, 2.0)"> </text><text xml:space="preserve" font-family="HelveticaNeue" font-size="30.0" fill="#DDDDDD" transform="matrix(1.00, 0.00, -0.00, -1.00, 67.7, 2.0)">l</text><text xml:space="preserve" font-family="HelveticaNeue" font-size="30.0" fill="#DDDDDD" transform="matrix(1.00, 0.00, -0.00, -1.00, 74.3, 2.0)">e</text><text xml:space="preserve" font-family="HelveticaNeue" font-size="30.0" fill="#DDDDDD" transform="matrix(1.00, 0.00, -0.00, -1.00, 90.5, 2.0)">s</text><text xml:space="preserve" font-family="HelveticaNeue" font-size="30.0" fill="#DDDDDD" transform="matrix(1.00, 0.00, -0.00, -1.00, 105.5, 2.0)"> </text><text xml:space="preserve" font-family="HelveticaNeue" font-size="30.0" fill="#DDDDDD" transform="matrix(1.00, 0.00, -0.00, -1.00, 113.8, 2.0)">i</text><text xml:space="preserve" font-family="HelveticaNeue" font-size="30.0" fill="#DDDDDD" transform="matrix(1.00, 0.00, -0.00, -1.00, 120.5, 2.0)">n</text><text xml:space="preserve" font-family="HelveticaNeue" font-size="30.0" fill="#DDDDDD" transform="matrix(1.00, 0.00, -0.00, -1.00, 137.1, 2.0)">f</text><text xml:space="preserve" font-family="HelveticaNeue" font-size="30.0" fill="#DDDDDD" transform="matrix(1.00, 0.00, -0.00, -1.00, 146.0, 2.0)">o</text><text xml:space="preserve" font-family="HelveticaNeue" font-size="30.0" fill="#DDDDDD" transform="matrix(1.00, 0.00, -0.00, -1.00, 163.2, 2.0)">s</text><text xml:space="preserve" font-family="HelveticaNeue" font-size="30.0" fill="#DDDDDD" transform="matrix(1.00, 0.00, -0.00, -1.00, 178.2, 2.0)"> </text><text xml:space="preserve" font-family="HelveticaNeue" font-size="30.0" fill="#DDDDDD" transform="matrix(1.00, 0.00, -0.00, -1.00, 186.6, 2.0)">?</text></g></svg>