<?xml version="1.0" encoding="UTF-8" standalone="no"?><svg xmlns="http://www.w3.org/2000/svg" xmlns:xlink="http://www.w3.org/1999/xlink" clip-rule="evenodd" stroke-miterlimit="4.00" viewBox="0 0 288 144"><desc>SVG generated by Keynote</desc><defs></defs><g transform="matrix(1.00, 0.00, -0.00, -1.00, 0.0, 144.0)"><g><clipPath id="clip-136"><path d="M 79.3 142.9 L 65.1 111.4 L 13.5 111.4 C 6.7 111.4 1.3 105.9 1.3 99.2 L 1.3 14.0 C 1.3 7.3 6.7 1.8 13.5 1.8 L 274.3 1.8 C 281.1 1.8 286.5 7.3 286.5 14.0 L 286.5 99.2 C 286.5 105.9 281.1 111.4 274.3 111.4 L 93.4 111.4 L 79.3 142.9 Z M 79.3 142.9 "></path></clipPath><g clip-path="url(#clip-136)"><image xlink:href="../../49DDBF36-1474-4987-97A0-D14476485BED/assets/0A5B1DA2EB1C297C080B39FBBE6E4ED7.jpeg" width="289.00" height="289.00" transform="matrix(1.00, 0.00, -0.00, -1.00, 1.3, 142.9)"></image><path d="M 1.3 142.9 L 286.5 142.9 L 286.5 1.8 L 1.3 1.8 Z M 1.3 142.9 " fill="#4075C4" fill-opacity="0.50"></path></g></g><g><clipPath id="clip-137"><path d="M -3.5 1.8 L 291.3 1.8 L 291.3 111.4 L -3.5 111.4 Z M -3.5 1.8 "></path></clipPath><g clip-path="url(#clip-137)"><text xml:space="preserve" font-family="HelveticaNeue" font-size="30.0" fill="#DDDDDD" transform="matrix(1.00, 0.00, -0.00, -1.00, 9.0, 63.0)">W</text><text xml:space="preserve" font-family="HelveticaNeue" font-size="30.0" fill="#DDDDDD" transform="matrix(1.00, 0.00, -0.00, -1.00, 36.8, 63.0)">i</text><text xml:space="preserve" font-family="HelveticaNeue" font-size="30.0" fill="#DDDDDD" transform="matrix(1.00, 0.00, -0.00, -1.00, 43.4, 63.0)">n</text><text xml:space="preserve" font-family="HelveticaNeue" font-size="30.0" fill="#DDDDDD" transform="matrix(1.00, 0.00, -0.00, -1.00, 60.1, 63.0)">d</text><text xml:space="preserve" font-family="HelveticaNeue" font-size="30.0" fill="#DDDDDD" transform="matrix(1.00, 0.00, -0.00, -1.00, 77.9, 63.0)">o</text><text xml:space="preserve" font-family="HelveticaNeue" font-size="30.0" fill="#DDDDDD" transform="matrix(1.00, 0.00, -0.00, -1.00, 95.1, 63.0)">w</text><text xml:space="preserve" font-family="HelveticaNeue" font-size="30.0" fill="#DDDDDD" transform="matrix(1.00, 0.00, -0.00, -1.00, 117.9, 63.0)">s</text><text xml:space="preserve" font-family="HelveticaNeue" font-size="30.0" fill="#DDDDDD" transform="matrix(1.00, 0.00, -0.00, -1.00, 132.9, 63.0)"> </text><text xml:space="preserve" font-family="HelveticaNeue" font-size="30.0" fill="#DDDDDD" transform="matrix(1.00, 0.00, -0.00, -1.00, 141.2, 63.0)">P</text><text xml:space="preserve" font-family="HelveticaNeue" font-size="30.0" fill="#DDDDDD" transform="matrix(1.00, 0.00, -0.00, -1.00, 160.6, 63.0)">h</text><text xml:space="preserve" font-family="HelveticaNeue" font-size="30.0" fill="#DDDDDD" transform="matrix(1.00, 0.00, -0.00, -1.00, 177.3, 63.0)">o</text><text xml:space="preserve" font-family="HelveticaNeue" font-size="30.0" fill="#DDDDDD" transform="matrix(1.00, 0.00, -0.00, -1.00, 194.5, 63.0)">n</text><text xml:space="preserve" font-family="HelveticaNeue" font-size="30.0" fill="#DDDDDD" transform="matrix(1.00, 0.00, -0.00, -1.00, 211.2, 63.0)">e</text><text xml:space="preserve" font-family="HelveticaNeue" font-size="30.0" fill="#DDDDDD" transform="matrix(1.00, 0.00, -0.00, -1.00, 227.3, 63.0)">,</text><text xml:space="preserve" font-family="HelveticaNeue" font-size="30.0" fill="#DDDDDD" transform="matrix(1.00, 0.00, -0.00, -1.00, 235.7, 63.0)"> </text><text xml:space="preserve" font-family="HelveticaNeue" font-size="30.0" fill="#DDDDDD" transform="matrix(1.00, 0.00, -0.00, -1.00, 244.0, 63.0)">o</text><text xml:space="preserve" font-family="HelveticaNeue" font-size="30.0" fill="#DDDDDD" transform="matrix(1.00, 0.00, -0.00, -1.00, 261.2, 63.0)">ù</text><text xml:space="preserve" font-family="HelveticaNeue" font-size="30.0" fill="#DDDDDD" transform="matrix(1.00, 0.00, -0.00, -1.00, 277.9, 63.0)"> </text><text xml:space="preserve" font-family="HelveticaNeue" font-size="30.0" fill="#DDDDDD" transform="matrix(1.00, 0.00, -0.00, -1.00, 43.0, 27.0)">s</text><text xml:space="preserve" font-family="HelveticaNeue" font-size="30.0" fill="#DDDDDD" transform="matrix(1.00, 0.00, -0.00, -1.00, 58.0, 27.0)">o</text><text xml:space="preserve" font-family="HelveticaNeue" font-size="30.0" fill="#DDDDDD" transform="matrix(1.00, 0.00, -0.00, -1.00, 75.2, 27.0)">n</text><text xml:space="preserve" font-family="HelveticaNeue" font-size="30.0" fill="#DDDDDD" transform="matrix(1.00, 0.00, -0.00, -1.00, 91.9, 27.0)">t</text><text xml:space="preserve" font-family="HelveticaNeue" font-size="30.0" fill="#DDDDDD" transform="matrix(1.00, 0.00, -0.00, -1.00, 101.3, 27.0)"> </text><text xml:space="preserve" font-family="HelveticaNeue" font-size="30.0" fill="#DDDDDD" transform="matrix(1.00, 0.00, -0.00, -1.00, 109.7, 27.0)">l</text><text xml:space="preserve" font-family="HelveticaNeue" font-size="30.0" fill="#DDDDDD" transform="matrix(1.00, 0.00, -0.00, -1.00, 116.3, 27.0)">e</text><text xml:space="preserve" font-family="HelveticaNeue" font-size="30.0" fill="#DDDDDD" transform="matrix(1.00, 0.00, -0.00, -1.00, 132.5, 27.0)">s</text><text xml:space="preserve" font-family="HelveticaNeue" font-size="30.0" fill="#DDDDDD" transform="matrix(1.00, 0.00, -0.00, -1.00, 147.5, 27.0)"> </text><text xml:space="preserve" font-family="HelveticaNeue" font-size="30.0" fill="#DDDDDD" transform="matrix(1.00, 0.00, -0.00, -1.00, 155.8, 27.0)">i</text><text xml:space="preserve" font-family="HelveticaNeue" font-size="30.0" fill="#DDDDDD" transform="matrix(1.00, 0.00, -0.00, -1.00, 162.5, 27.0)">n</text><text xml:space="preserve" font-family="HelveticaNeue" font-size="30.0" fill="#DDDDDD" transform="matrix(1.00, 0.00, -0.00, -1.00, 179.1, 27.0)">f</text><text xml:space="preserve" font-family="HelveticaNeue" font-size="30.0" fill="#DDDDDD" transform="matrix(1.00, 0.00, -0.00, -1.00, 188.0, 27.0)">o</text><text xml:space="preserve" font-family="HelveticaNeue" font-size="30.0" fill="#DDDDDD" transform="matrix(1.00, 0.00, -0.00, -1.00, 205.2, 27.0)">s</text><text xml:space="preserve" font-family="HelveticaNeue" font-size="30.0" fill="#DDDDDD" transform="matrix(1.00, 0.00, -0.00, -1.00, 220.2, 27.0)"> </text><text xml:space="preserve" font-family="HelveticaNeue" font-size="30.0" fill="#DDDDDD" transform="matrix(1.00, 0.00, -0.00, -1.00, 228.6, 27.0)">?</text></g></g></g></svg>