<?xml version="1.0" encoding="UTF-8" standalone="no"?><svg xmlns="http://www.w3.org/2000/svg" xmlns:xlink="http://www.w3.org/1999/xlink" clip-rule="evenodd" stroke-miterlimit="4.00" viewBox="0 0 307 144"><desc>SVG generated by Keynote</desc><defs><pattern id="6C43A865-D696-4995-9359-C9C88D38F066" patternUnits="userSpaceOnUse" width="289" height="289" viewBox="0 0 289 289" patternTransform="matrix(0.996540, 0.000000, 0.000000, -0.996540, 1.890625, 142.178600)"><image xlink:href="../../49DDBF36-1474-4987-97A0-D14476485BED/assets/0A5B1DA2EB1C297C080B39FBBE6E4ED7.jpeg" width="289.00" height="289.00"></image></pattern></defs><g transform="matrix(1.00, 0.00, -0.00, -1.00, 0.0, 144.0)"><g><clipPath id="clip-132"><path d="M 153.7 142.2 C 69.9 142.2 1.9 115.3 1.9 82.1 C 1.9 64.9 20.2 49.5 49.3 38.5 L 3.2 1.3 L 87.6 28.0 C 107.6 24.2 130.0 22.0 153.7 22.0 C 237.5 22.0 305.5 48.9 305.5 82.1 C 305.5 115.3 237.5 142.2 153.7 142.2 Z M 153.7 142.2 "></path></clipPath><g clip-path="url(#clip-132)"><path d="M 1.9 1.3 L 305.5 1.3 L 305.5 142.2 L 1.9 142.2 Z M 1.9 1.3 " fill="url(#6C43A865-D696-4995-9359-C9C88D38F066)"></path><path d="M 1.9 142.2 L 305.5 142.2 L 305.5 1.3 L 1.9 1.3 Z M 1.9 142.2 " fill="#4075C4" fill-opacity="0.50"></path></g></g><g><clipPath id="clip-133"><path d="M 1.9 19.4 L 305.5 19.4 L 305.5 144.9 L 1.9 144.9 Z M 1.9 19.4 "></path></clipPath><g clip-path="url(#clip-133)"><text xml:space="preserve" font-family="HelveticaNeue" font-size="30.0" fill="#DDDDDD" transform="matrix(1.00, 0.00, -0.00, -1.00, 122.0, 107.0)">M</text><text xml:space="preserve" font-family="HelveticaNeue" font-size="30.0" fill="#DDDDDD" transform="matrix(1.00, 0.00, -0.00, -1.00, 148.1, 107.0)">a</text><text xml:space="preserve" font-family="HelveticaNeue" font-size="30.0" fill="#DDDDDD" transform="matrix(1.00, 0.00, -0.00, -1.00, 164.2, 107.0)">i</text><text xml:space="preserve" font-family="HelveticaNeue" font-size="30.0" fill="#DDDDDD" transform="matrix(1.00, 0.00, -0.00, -1.00, 170.9, 107.0)">s</text><text xml:space="preserve" font-family="HelveticaNeue" font-size="30.0" fill="#DDDDDD" transform="matrix(1.00, 0.00, -0.00, -1.00, 185.9, 107.0)"> </text><text xml:space="preserve" font-family="HelveticaNeue" font-size="30.0" fill="#DDDDDD" transform="matrix(1.00, 0.00, -0.00, -1.00, 54.0, 71.0)">j</text><text xml:space="preserve" font-family="HelveticaNeue" font-size="30.0" fill="#DDDDDD" transform="matrix(1.00, 0.00, -0.00, -1.00, 60.7, 71.0)">e</text><text xml:space="preserve" font-family="HelveticaNeue" font-size="30.0" fill="#DDDDDD" transform="matrix(1.00, 0.00, -0.00, -1.00, 76.8, 71.0)"> </text><text xml:space="preserve" font-family="HelveticaNeue" font-size="30.0" fill="#DDDDDD" transform="matrix(1.00, 0.00, -0.00, -1.00, 85.1, 71.0)">d</text><text xml:space="preserve" font-family="HelveticaNeue" font-size="30.0" fill="#DDDDDD" transform="matrix(1.00, 0.00, -0.00, -1.00, 102.9, 71.0)">o</text><text xml:space="preserve" font-family="HelveticaNeue" font-size="30.0" fill="#DDDDDD" transform="matrix(1.00, 0.00, -0.00, -1.00, 120.1, 71.0)">r</text><text xml:space="preserve" font-family="HelveticaNeue" font-size="30.0" fill="#DDDDDD" transform="matrix(1.00, 0.00, -0.00, -1.00, 130.1, 71.0)">s</text><text xml:space="preserve" font-family="HelveticaNeue" font-size="30.0" fill="#DDDDDD" transform="matrix(1.00, 0.00, -0.00, -1.00, 145.1, 71.0)"> </text><text xml:space="preserve" font-family="HelveticaNeue" font-size="30.0" fill="#DDDDDD" transform="matrix(1.00, 0.00, -0.00, -1.00, 153.4, 71.0)">à</text><text xml:space="preserve" font-family="HelveticaNeue" font-size="30.0" fill="#DDDDDD" transform="matrix(1.00, 0.00, -0.00, -1.00, 169.6, 71.0)"> </text><text xml:space="preserve" font-family="HelveticaNeue" font-size="30.0" fill="#DDDDDD" transform="matrix(1.00, 0.00, -0.00, -1.00, 177.9, 71.0)">4</text><text xml:space="preserve" font-family="HelveticaNeue" font-size="30.0" fill="#DDDDDD" transform="matrix(1.00, 0.00, -0.00, -1.00, 194.6, 71.0)">h</text><text xml:space="preserve" font-family="HelveticaNeue" font-size="30.0" fill="#DDDDDD" transform="matrix(1.00, 0.00, -0.00, -1.00, 211.3, 71.0)"> </text><text xml:space="preserve" font-family="HelveticaNeue" font-size="30.0" fill="#DDDDDD" transform="matrix(1.00, 0.00, -0.00, -1.00, 219.6, 71.0)">d</text><text xml:space="preserve" font-family="HelveticaNeue" font-size="30.0" fill="#DDDDDD" transform="matrix(1.00, 0.00, -0.00, -1.00, 237.4, 71.0)">u</text><text xml:space="preserve" font-family="HelveticaNeue" font-size="30.0" fill="#DDDDDD" transform="matrix(1.00, 0.00, -0.00, -1.00, 254.1, 71.0)"> </text><text xml:space="preserve" font-family="HelveticaNeue" font-size="30.0" fill="#DDDDDD" transform="matrix(1.00, 0.00, -0.00, -1.00, 116.0, 35.0)">m</text><text xml:space="preserve" font-family="HelveticaNeue" font-size="30.0" fill="#DDDDDD" transform="matrix(1.00, 0.00, -0.00, -1.00, 141.6, 35.0)">a</text><text xml:space="preserve" font-family="HelveticaNeue" font-size="30.0" fill="#DDDDDD" transform="matrix(1.00, 0.00, -0.00, -1.00, 157.7, 35.0)">t</text><text xml:space="preserve" font-family="HelveticaNeue" font-size="30.0" fill="#DDDDDD" transform="matrix(1.00, 0.00, -0.00, -1.00, 167.2, 35.0)">i</text><text xml:space="preserve" font-family="HelveticaNeue" font-size="30.0" fill="#DDDDDD" transform="matrix(1.00, 0.00, -0.00, -1.00, 173.8, 35.0)">n</text><text xml:space="preserve" font-family="HelveticaNeue" font-size="30.0" fill="#DDDDDD" transform="matrix(1.00, 0.00, -0.00, -1.00, 190.5, 35.0)"> </text></g></g></g></svg>