<?xml version="1.0" encoding="UTF-8" standalone="no"?><svg xmlns="http://www.w3.org/2000/svg" xmlns:xlink="http://www.w3.org/1999/xlink" clip-rule="evenodd" stroke-miterlimit="4.00" viewBox="0 0 297 198"><desc>SVG generated by Keynote</desc><defs><pattern id="83B9D973-3374-4212-AD5F-08C66D41D115" patternUnits="userSpaceOnUse" width="289" height="289" viewBox="0 0 289 289" patternTransform="matrix(0.996540, 0.000000, 0.000000, -0.996540, 1.115849, 196.934700)"><image xlink:href="../../49DDBF36-1474-4987-97A0-D14476485BED/assets/0A5B1DA2EB1C297C080B39FBBE6E4ED7.jpeg" width="289.00" height="289.00"></image></pattern></defs><g transform="matrix(1.00, 0.00, -0.00, -1.00, 0.0, 198.0)"><g><clipPath id="clip-146"><path d="M 233.0 196.9 L 175.8 140.4 C 166.9 141.2 157.7 141.7 148.2 141.7 C 67.0 141.7 1.1 110.4 1.1 71.8 C 1.1 33.2 67.0 1.9 148.2 1.9 C 229.5 1.9 295.4 33.2 295.4 71.8 C 295.4 100.4 259.1 125.0 207.2 135.8 L 233.0 196.9 Z M 233.0 196.9 "></path></clipPath><g clip-path="url(#clip-146)"><path d="M 1.1 1.9 L 295.4 1.9 L 295.4 196.9 L 1.1 196.9 Z M 1.1 1.9 " fill="url(#83B9D973-3374-4212-AD5F-08C66D41D115)"></path><path d="M 1.1 196.9 L 295.4 196.9 L 295.4 1.9 L 1.1 1.9 Z M 1.1 196.9 " fill="#4075C4" fill-opacity="0.50"></path></g></g></g></svg>