<?xml version="1.0" encoding="UTF-8" standalone="no"?><svg xmlns="http://www.w3.org/2000/svg" xmlns:xlink="http://www.w3.org/1999/xlink" clip-rule="evenodd" stroke-miterlimit="4.00" viewBox="0 0 785 63"><desc>SVG generated by Keynote</desc><defs></defs><g transform="matrix(1.00, 0.00, -0.00, -1.00, 0.0, 63.0)"><text xml:space="preserve" font-family="HelveticaNeue-CondensedBold" font-weight="bold" font-size="72.0" fill="#DDDDDD" transform="matrix(1.00, 0.00, -0.00, -1.00, -1.0, 9.0)">P</text><text xml:space="preserve" font-family="HelveticaNeue-CondensedBold" font-weight="bold" font-size="72.0" fill="#DDDDDD" transform="matrix(1.00, 0.00, -0.00, -1.00, 36.4, 9.0)">R</text><text xml:space="preserve" font-family="HelveticaNeue-CondensedBold" font-weight="bold" font-size="72.0" fill="#DDDDDD" transform="matrix(1.00, 0.00, -0.00, -1.00, 76.4, 9.0)">E</text><text xml:space="preserve" font-family="HelveticaNeue-CondensedBold" font-weight="bold" font-size="72.0" fill="#DDDDDD" transform="matrix(1.00, 0.00, -0.00, -1.00, 111.0, 9.0)">S</text><text xml:space="preserve" font-family="HelveticaNeue-CondensedBold" font-weight="bold" font-size="72.0" fill="#DDDDDD" transform="matrix(1.00, 0.00, -0.00, -1.00, 148.4, 9.0)">E</text><text xml:space="preserve" font-family="HelveticaNeue-CondensedBold" font-weight="bold" font-size="72.0" fill="#DDDDDD" transform="matrix(1.00, 0.00, -0.00, -1.00, 183.0, 9.0)">N</text><text xml:space="preserve" font-family="HelveticaNeue-CondensedBold" font-weight="bold" font-size="72.0" fill="#DDDDDD" transform="matrix(1.00, 0.00, -0.00, -1.00, 224.4, 9.0)">T</text><text xml:space="preserve" font-family="HelveticaNeue-CondensedBold" font-weight="bold" font-size="72.0" fill="#DDDDDD" transform="matrix(1.00, 0.00, -0.00, -1.00, 255.0, 9.0)">A</text><text xml:space="preserve" font-family="HelveticaNeue-CondensedBold" font-weight="bold" font-size="72.0" fill="#DDDDDD" transform="matrix(1.00, 0.00, -0.00, -1.00, 291.0, 9.0)">T</text><text xml:space="preserve" font-family="HelveticaNeue-CondensedBold" font-weight="bold" font-size="72.0" fill="#DDDDDD" transform="matrix(1.00, 0.00, -0.00, -1.00, 325.6, 9.0)">I</text><text xml:space="preserve" font-family="HelveticaNeue-CondensedBold" font-weight="bold" font-size="72.0" fill="#DDDDDD" transform="matrix(1.00, 0.00, -0.00, -1.00, 344.2, 9.0)">O</text><text xml:space="preserve" font-family="HelveticaNeue-CondensedBold" font-weight="bold" font-size="72.0" fill="#DDDDDD" transform="matrix(1.00, 0.00, -0.00, -1.00, 384.2, 9.0)">N</text><text xml:space="preserve" font-family="HelveticaNeue-CondensedBold" font-weight="bold" font-size="72.0" fill="#DDDDDD" transform="matrix(1.00, 0.00, -0.00, -1.00, 425.5, 9.0)"> </text><text xml:space="preserve" font-family="HelveticaNeue-CondensedBold" font-weight="bold" font-size="72.0" fill="#DDDDDD" transform="matrix(1.00, 0.00, -0.00, -1.00, 442.8, 9.0)">D</text><text xml:space="preserve" font-family="HelveticaNeue-CondensedBold" font-weight="bold" font-size="72.0" fill="#DDDDDD" transform="matrix(1.00, 0.00, -0.00, -1.00, 484.1, 9.0)">E</text><text xml:space="preserve" font-family="HelveticaNeue-CondensedBold" font-weight="bold" font-size="72.0" fill="#DDDDDD" transform="matrix(1.00, 0.00, -0.00, -1.00, 518.8, 9.0)"> </text><text xml:space="preserve" font-family="HelveticaNeue-CondensedBold" font-weight="bold" font-size="72.0" fill="#DDDDDD" transform="matrix(1.00, 0.00, -0.00, -1.00, 536.0, 9.0)">L</text><text xml:space="preserve" font-family="HelveticaNeue-CondensedBold" font-weight="bold" font-size="72.0" fill="#DDDDDD" transform="matrix(1.00, 0.00, -0.00, -1.00, 562.8, 9.0)">’</text><text xml:space="preserve" font-family="HelveticaNeue-CondensedBold" font-weight="bold" font-size="72.0" fill="#DDDDDD" transform="matrix(1.00, 0.00, -0.00, -1.00, 581.5, 9.0)">E</text><text xml:space="preserve" font-family="HelveticaNeue-CondensedBold" font-weight="bold" font-size="72.0" fill="#DDDDDD" transform="matrix(1.00, 0.00, -0.00, -1.00, 616.1, 9.0)">Q</text><text xml:space="preserve" font-family="HelveticaNeue-CondensedBold" font-weight="bold" font-size="72.0" fill="#DDDDDD" transform="matrix(1.00, 0.00, -0.00, -1.00, 656.1, 9.0)">U</text><text xml:space="preserve" font-family="HelveticaNeue-CondensedBold" font-weight="bold" font-size="72.0" fill="#DDDDDD" transform="matrix(1.00, 0.00, -0.00, -1.00, 694.9, 9.0)">I</text><text xml:space="preserve" font-family="HelveticaNeue-CondensedBold" font-weight="bold" font-size="72.0" fill="#DDDDDD" transform="matrix(1.00, 0.00, -0.00, -1.00, 713.5, 9.0)">P</text><text xml:space="preserve" font-family="HelveticaNeue-CondensedBold" font-weight="bold" font-size="72.0" fill="#DDDDDD" transform="matrix(1.00, 0.00, -0.00, -1.00, 750.8, 9.0)">E</text></g></svg>