<?xml version="1.0" encoding="UTF-8" standalone="no"?><svg xmlns="http://www.w3.org/2000/svg" xmlns:xlink="http://www.w3.org/1999/xlink" clip-rule="evenodd" stroke-miterlimit="4.00" viewBox="0 0 226 27"><desc>SVG generated by Keynote</desc><defs></defs><g transform="matrix(1.00, 0.00, -0.00, -1.00, 0.0, 27.0)"><text xml:space="preserve" font-family="HelveticaNeue" font-size="30.0" fill="#DDDDDD" transform="matrix(1.00, 0.00, -0.00, -1.00, 0.0, 3.0)">P</text><text xml:space="preserve" font-family="HelveticaNeue" font-size="30.0" fill="#DDDDDD" transform="matrix(1.00, 0.00, -0.00, -1.00, 19.4, 3.0)">R</text><text xml:space="preserve" font-family="HelveticaNeue" font-size="30.0" fill="#DDDDDD" transform="matrix(1.00, 0.00, -0.00, -1.00, 40.0, 3.0)">O</text><text xml:space="preserve" font-family="HelveticaNeue" font-size="30.0" fill="#DDDDDD" transform="matrix(1.00, 0.00, -0.00, -1.00, 62.8, 3.0)">F</text><text xml:space="preserve" font-family="HelveticaNeue" font-size="30.0" fill="#DDDDDD" transform="matrix(1.00, 0.00, -0.00, -1.00, 80.0, 3.0)">E</text><text xml:space="preserve" font-family="HelveticaNeue" font-size="30.0" fill="#DDDDDD" transform="matrix(1.00, 0.00, -0.00, -1.00, 98.3, 3.0)">S</text><text xml:space="preserve" font-family="HelveticaNeue" font-size="30.0" fill="#DDDDDD" transform="matrix(1.00, 0.00, -0.00, -1.00, 117.8, 3.0)">S</text><text xml:space="preserve" font-family="HelveticaNeue" font-size="30.0" fill="#DDDDDD" transform="matrix(1.00, 0.00, -0.00, -1.00, 137.2, 3.0)">I</text><text xml:space="preserve" font-family="HelveticaNeue" font-size="30.0" fill="#DDDDDD" transform="matrix(1.00, 0.00, -0.00, -1.00, 145.0, 3.0)">O</text><text xml:space="preserve" font-family="HelveticaNeue" font-size="30.0" fill="#DDDDDD" transform="matrix(1.00, 0.00, -0.00, -1.00, 167.8, 3.0)">N</text><text xml:space="preserve" font-family="HelveticaNeue" font-size="30.0" fill="#DDDDDD" transform="matrix(1.00, 0.00, -0.00, -1.00, 189.4, 3.0)">E</text><text xml:space="preserve" font-family="HelveticaNeue" font-size="30.0" fill="#DDDDDD" transform="matrix(1.00, 0.00, -0.00, -1.00, 207.8, 3.0)">L</text></g></svg>