<?xml version="1.0" encoding="UTF-8" standalone="no"?><svg xmlns="http://www.w3.org/2000/svg" xmlns:xlink="http://www.w3.org/1999/xlink" clip-rule="evenodd" stroke-miterlimit="4.00" viewBox="0 0 332 220"><desc>SVG generated by Keynote</desc><defs><pattern id="8D7EB5AD-9082-48D0-B50F-3E9AC108174E" patternUnits="userSpaceOnUse" width="335" height="335" viewBox="0 0 335 335" patternTransform="matrix(0.859702, 0.000000, 0.000000, -0.859702, 21.234380, 188.234400)"><image xlink:href="../../E4E529A7-F66A-4B1D-8C05-6AD545F75BC5/assets/669ADF0A15E89A699953E3067A2ED954.jpeg" width="335.00" height="335.00"></image></pattern></defs><g transform="matrix(1.00, 0.00, -0.00, -1.00, 0.0, 220.0)"><image xlink:href="../../C6C50A69-70A8-44AC-8E08-650805E44BFB/assets/635F9F978011F0ABB68E908DD505DAD5.png" width="330.00" height="197.00" transform="matrix(1.00, 0.00, -0.00, -1.00, 1.2, 198.2)" opacity="0.70"></image><g><clipPath id="clip-32"><path d="M 166.0 188.2 C 86.0 188.2 21.2 158.8 21.2 122.4 C 21.2 86.0 86.0 56.5 166.0 56.5 C 184.3 56.5 201.8 58.2 218.0 61.0 L 299.9 31.3 L 262.6 73.5 C 292.1 85.5 310.8 102.9 310.8 122.4 C 310.8 158.8 245.9 188.2 166.0 188.2 Z M 166.0 188.2 "></path></clipPath><g clip-path="url(#clip-32)"><path d="M 21.2 31.3 L 310.8 31.3 L 310.8 188.2 L 21.2 188.2 Z M 21.2 31.3 " fill="url(#8D7EB5AD-9082-48D0-B50F-3E9AC108174E)"></path><path d="M 21.2 188.2 L 310.8 188.2 L 310.8 31.3 L 21.2 31.3 Z M 21.2 188.2 " fill="#4075C4" fill-opacity="0.50"></path></g></g></g></svg>