<?xml version="1.0" encoding="UTF-8" standalone="no"?><svg xmlns="http://www.w3.org/2000/svg" xmlns:xlink="http://www.w3.org/1999/xlink" clip-rule="evenodd" stroke-miterlimit="4.00" viewBox="0 0 332 278"><desc>SVG generated by Keynote</desc><defs><pattern id="85ABEF5C-D21C-4212-8D74-E572BDA6004D" patternUnits="userSpaceOnUse" width="335" height="335" viewBox="0 0 335 335" patternTransform="matrix(0.859702, 0.000000, 0.000000, -0.859702, 21.257930, 246.421900)"><image xlink:href="../../E4E529A7-F66A-4B1D-8C05-6AD545F75BC5/assets/669ADF0A15E89A699953E3067A2ED954.jpeg" width="335.00" height="335.00"></image></pattern></defs><g transform="matrix(1.00, 0.00, -0.00, -1.00, 0.0, 278.0)"><image xlink:href="../../C6C50A69-70A8-44AC-8E08-650805E44BFB/assets/25435F7C0CE68E070DF4D590DFF91D34.png" width="330.00" height="254.00" transform="matrix(1.00, 0.00, -0.00, -1.00, 1.3, 256.4)" opacity="0.70"></image><g><clipPath id="clip-34"><path d="M 35.7 246.4 L 92.9 158.5 C 50.1 146.7 21.3 124.9 21.3 99.9 C 21.3 62.4 86.1 32.0 166.0 32.0 C 246.0 32.0 310.8 62.4 310.8 99.9 C 310.8 137.4 246.0 167.8 166.0 167.8 C 154.5 167.8 143.3 167.1 132.5 165.9 L 35.7 246.4 Z M 35.7 246.4 "></path></clipPath><g clip-path="url(#clip-34)"><path d="M 21.3 32.0 L 310.8 32.0 L 310.8 246.4 L 21.3 246.4 Z M 21.3 32.0 " fill="url(#85ABEF5C-D21C-4212-8D74-E572BDA6004D)"></path><path d="M 21.3 246.4 L 310.8 246.4 L 310.8 32.0 L 21.3 32.0 Z M 21.3 246.4 " fill="#4075C4" fill-opacity="0.50"></path></g></g></g></svg>