<?xml version="1.0" encoding="UTF-8" standalone="no"?><svg xmlns="http://www.w3.org/2000/svg" xmlns:xlink="http://www.w3.org/1999/xlink" clip-rule="evenodd" stroke-miterlimit="4.00" viewBox="0 0 814 54"><desc>SVG generated by Keynote</desc><defs></defs><g transform="matrix(1.00, 0.00, -0.00, -1.00, 0.0, 54.0)"><text xml:space="preserve" font-family="HelveticaNeue-CondensedBold" font-weight="bold" font-size="67.7" fill="#DDDDDD" transform="matrix(1.00, 0.00, -0.00, -1.00, 0.0, 2.0)">C</text><text xml:space="preserve" font-family="HelveticaNeue-CondensedBold" font-weight="bold" font-size="67.7" fill="#DDDDDD" transform="matrix(1.00, 0.00, -0.00, -1.00, 36.3, 2.0)">O</text><text xml:space="preserve" font-family="HelveticaNeue-CondensedBold" font-weight="bold" font-size="67.7" fill="#DDDDDD" transform="matrix(1.00, 0.00, -0.00, -1.00, 74.0, 2.0)">U</text><text xml:space="preserve" font-family="HelveticaNeue-CondensedBold" font-weight="bold" font-size="67.7" fill="#DDDDDD" transform="matrix(1.00, 0.00, -0.00, -1.00, 110.4, 2.0)">T</text><text xml:space="preserve" font-family="HelveticaNeue-CondensedBold" font-weight="bold" font-size="67.7" fill="#DDDDDD" transform="matrix(1.00, 0.00, -0.00, -1.00, 142.9, 2.0)">E</text><text xml:space="preserve" font-family="HelveticaNeue-CondensedBold" font-weight="bold" font-size="67.7" fill="#DDDDDD" transform="matrix(1.00, 0.00, -0.00, -1.00, 175.4, 2.0)">A</text><text xml:space="preserve" font-family="HelveticaNeue-CondensedBold" font-weight="bold" font-size="67.7" fill="#DDDDDD" transform="matrix(1.00, 0.00, -0.00, -1.00, 213.1, 2.0)">U</text><text xml:space="preserve" font-family="HelveticaNeue-CondensedBold" font-weight="bold" font-size="67.7" fill="#DDDDDD" transform="matrix(1.00, 0.00, -0.00, -1.00, 249.5, 2.0)"> </text><text xml:space="preserve" font-family="HelveticaNeue-CondensedBold" font-weight="bold" font-size="67.7" fill="#DDDDDD" transform="matrix(1.00, 0.00, -0.00, -1.00, 265.7, 2.0)">S</text><text xml:space="preserve" font-family="HelveticaNeue-CondensedBold" font-weight="bold" font-size="67.7" fill="#DDDDDD" transform="matrix(1.00, 0.00, -0.00, -1.00, 300.8, 2.0)">U</text><text xml:space="preserve" font-family="HelveticaNeue-CondensedBold" font-weight="bold" font-size="67.7" fill="#DDDDDD" transform="matrix(1.00, 0.00, -0.00, -1.00, 337.2, 2.0)">I</text><text xml:space="preserve" font-family="HelveticaNeue-CondensedBold" font-weight="bold" font-size="67.7" fill="#DDDDDD" transform="matrix(1.00, 0.00, -0.00, -1.00, 354.7, 2.0)">S</text><text xml:space="preserve" font-family="HelveticaNeue-CondensedBold" font-weight="bold" font-size="67.7" fill="#DDDDDD" transform="matrix(1.00, 0.00, -0.00, -1.00, 389.8, 2.0)">S</text><text xml:space="preserve" font-family="HelveticaNeue-CondensedBold" font-weight="bold" font-size="67.7" fill="#DDDDDD" transform="matrix(1.00, 0.00, -0.00, -1.00, 425.0, 2.0)">E</text><text xml:space="preserve" font-family="HelveticaNeue-CondensedBold" font-weight="bold" font-size="67.7" fill="#DDDDDD" transform="matrix(1.00, 0.00, -0.00, -1.00, 457.5, 2.0)"> </text><text xml:space="preserve" font-family="HelveticaNeue-CondensedBold" font-weight="bold" font-size="67.7" fill="#DDDDDD" transform="matrix(1.00, 0.00, -0.00, -1.00, 473.8, 2.0)">D</text><text xml:space="preserve" font-family="HelveticaNeue-CondensedBold" font-weight="bold" font-size="67.7" fill="#DDDDDD" transform="matrix(1.00, 0.00, -0.00, -1.00, 512.6, 2.0)">U</text><text xml:space="preserve" font-family="HelveticaNeue-CondensedBold" font-weight="bold" font-size="67.7" fill="#DDDDDD" transform="matrix(1.00, 0.00, -0.00, -1.00, 549.0, 2.0)"> </text><text xml:space="preserve" font-family="HelveticaNeue-CondensedBold" font-weight="bold" font-size="67.7" fill="#DDDDDD" transform="matrix(1.00, 0.00, -0.00, -1.00, 565.3, 2.0)">C</text><text xml:space="preserve" font-family="HelveticaNeue-CondensedBold" font-weight="bold" font-size="67.7" fill="#DDDDDD" transform="matrix(1.00, 0.00, -0.00, -1.00, 601.6, 2.0)">L</text><text xml:space="preserve" font-family="HelveticaNeue-CondensedBold" font-weight="bold" font-size="67.7" fill="#DDDDDD" transform="matrix(1.00, 0.00, -0.00, -1.00, 632.9, 2.0)">U</text><text xml:space="preserve" font-family="HelveticaNeue-CondensedBold" font-weight="bold" font-size="67.7" fill="#DDDDDD" transform="matrix(1.00, 0.00, -0.00, -1.00, 669.4, 2.0)">B</text><text xml:space="preserve" font-family="HelveticaNeue-CondensedBold" font-weight="bold" font-size="67.7" fill="#DDDDDD" transform="matrix(1.00, 0.00, -0.00, -1.00, 707.0, 2.0)">B</text><text xml:space="preserve" font-family="HelveticaNeue-CondensedBold" font-weight="bold" font-size="67.7" fill="#DDDDDD" transform="matrix(1.00, 0.00, -0.00, -1.00, 744.6, 2.0)">E</text><text xml:space="preserve" font-family="HelveticaNeue-CondensedBold" font-weight="bold" font-size="67.7" fill="#DDDDDD" transform="matrix(1.00, 0.00, -0.00, -1.00, 777.2, 2.0)">R</text></g></svg>